<?xml version="1.0" encoding="UTF-8" standalone="no"?>
<svg
   xmlns:dc="http://purl.org/dc/elements/1.1/"
   xmlns:cc="http://creativecommons.org/ns#"
   xmlns:rdf="http://www.w3.org/1999/02/22-rdf-syntax-ns#"
   xmlns:svg="http://www.w3.org/2000/svg"
   xmlns="http://www.w3.org/2000/svg"
   id="svg8"
   version="1.1"
   viewBox="0 0 280 180"
   height="180mm"
   width="280mm">
  <defs
     id="defs2" />
  <metadata
     id="metadata5">
    <rdf:RDF>
      <cc:Work
         rdf:about="">
        <dc:format>image/svg+xml</dc:format>
        <dc:type
           rdf:resource="http://purl.org/dc/dcmitype/StillImage" />
        <dc:title></dc:title>
      </cc:Work>
    </rdf:RDF>
  </metadata>
  <g
     transform="translate(0,-117)"
     id="layer1">
    <g
       style="fill:#f4e3d7"
       transform="matrix(0.59389356,0,0,0.6410632,-275.39187,365.37585)"
       id="g12624">
      <g
         transform="matrix(1,0,0,0.94986172,-161.86275,20.820001)"
         id="g12916">
        <path
           transform="translate(132.53498,117.75682)"
           d="m 670.17913,-534.44205 c -15.85595,17.30164 -27.3311,38.38293 -33.637,60.97059 -6.31049,22.60424 -7.42421,46.62946 -2.88255,69.66938 4.25662,21.59317 13.79714,42.16611 27.09686,59.66813 13.47294,17.7299 30.59889,32.66228 50.33891,43.05052 19.92207,10.48421 42.41447,16.35655 65.00319,15.36524 22.55415,-0.98989 45.05466,-9.01806 60.78715,-25.68363 16.16497,-17.12348 23.83859,-40.87389 24.16069,-64.13888 0.35911,-25.95704 -8.59226,-51.24238 -20.87634,-73.78453 -5.99686,-11.00456 -12.73562,-21.72124 -20.60081,-31.49424 -7.28875,-9.05616 -16.0094,-17.34538 -26.41953,-22.70125 -24.07037,-12.38285 -52.64503,-6.03638 -76.11604,4.64784 -10.76466,4.90044 -20.91654,11.35416 -29.54019,19.48251 -8.92246,8.41022 -15.73213,18.60867 -20.30201,29.96741 -9.29217,23.09777 -8.8004,49.33916 -4.96253,73.54853 3.62092,22.84024 12.20611,46.30032 31.5274,60.41178 18.89054,13.79714 45.12627,15.78681 66.80376,8.01476 22.42643,-8.04086 40.61355,-25.05745 53.02744,-45.10193 13.52126,-21.83271 20.52321,-48.19015 16.34808,-73.77712 -3.56094,-21.82425 -16.44791,-42.47092 -35.27179,-54.29427 -19.22886,-12.0777 -43.12638,-12.55325 -63.7473,-3.7846 -10.0016,4.25309 -19.1904,10.65953 -26.45092,18.76919 -7.84224,8.75911 -13.4694,19.3675 -16.71813,30.64757 -6.48618,22.52133 -3.69323,47.79716 7.78263,68.25474 5.54672,9.88766 13.25774,18.74837 22.85646,24.87189 10.06969,6.42408 22.13328,9.17293 34.00214,7.96078 23.70067,-2.4204 44.54524,-17.27976 57.33414,-36.96934 11.86393,-18.26542 16.98449,-40.81392 13.44684,-62.34959 -3.49708,-21.28944 -16.53151,-39.83179 -34.2974,-51.77967 -17.72426,-11.92001 -40.16411,-16.86666 -61.02704,-11.50409 -22.38657,5.75452 -41.60413,22.15798 -51.88161,42.72351 -11.3799,22.77217 -12.75045,50.25213 -4.69547,74.31864 7.50252,22.41585 23.43432,42.17211 46.42696,49.67076 23.68973,7.72618 50.15759,1.85737 70.19785,-12.2936 20.31081,-14.34253 35.11161,-35.85739 43.29394,-59.18341 8.45326,-24.09896 9.18562,-51.09492 -0.43957,-74.96952 -4.59528,-11.39789 -11.2141,-21.94454 -19.95558,-30.63134 -7.87328,-7.82461 -17.29458,-13.80596 -27.52972,-18.03259 -20.21628,-8.34884 -43.49397,-9.17681 -64.47154,-3.24132 -21.55754,6.09988 -40.38247,19.79154 -54.07519,37.38245 -13.89027,17.84491 -23.03004,39.35625 -26.18352,61.76046 -3.39337,24.10742 -0.46073,49.37336 10.83275,71.1521 10.18822,19.64725 27.16953,34.32704 47.75341,42.24725 19.42782,7.47536 41.53746,8.61978 61.56113,2.83281 20.5793,-5.94748 37.96488,-19.46063 49.86125,-37.15314 11.69847,-17.399 17.96556,-38.73218 17.24591,-59.70623 -0.77577,-22.62117 -9.93388,-45.18238 -26.25973,-61.05173 -8.69385,-8.45044 -19.34704,-14.65721 -31.02045,-17.95709 -12.28655,-3.47345 -25.31428,-3.77649 -37.84564,-1.53071 -21.97242,3.93806 -41.91106,16.60173 -56.01794,33.73967 -14.34112,17.42194 -22.9108,38.9435 -23.94973,61.5248 -1.0855,23.60189 5.84306,47.49447 18.50284,67.36045 6.42937,10.08909 14.36335,19.64443 23.83649,27.0129 9.9755,7.75864 22.09693,12.688 34.83539,9.79064 11.61945,-2.64301 21.16985,-11.01337 28.88474,-19.69064 8.64446,-9.72256 16.38194,-20.3955 23.63012,-31.18521 14.66425,-21.82847 27.11837,-45.42507 36.35409,-70.06625 4.81189,-12.83793 8.27018,-26.70916 5.78239,-40.4435 -1.95052,-10.76926 -8.13295,-19.89914 -16.80175,-26.42941 -7.95091,-5.98946 -17.98919,-9.40506 -27.94212,-9.52818 -10.31875,-0.12735 -20.1549,3.60363 -27.91248,10.37061 -15.31726,13.36146 -20.81742,37.05861 -11.88121,55.45985 9.08791,18.71416 31.49388,28.69424 51.60539,25.4067 21.14762,-3.45722 36.12622,-22.83107 38.5953,-43.3906 1.25414,-10.44506 -1.1363,-21.18609 -6.81602,-30.05491 -5.84763,-9.1313 -14.55243,-16.04928 -24.51663,-20.20394 -9.99738,-4.16807 -21.17656,-5.07189 -31.67027,-2.31563 -11.97717,3.14536 -22.49805,10.41964 -31.28223,18.96533 -17.76307,17.28187 -30.31948,40.20962 -36.10574,64.24683 -5.17031,21.47747 -5.62398,45.85371 5.41126,65.67735 5.51814,9.91305 14.00986,17.65441 24.49476,22.00945 11.41448,4.74098 24.32297,5.10787 36.3326,2.70016 21.51168,-4.31165 40.20254,-18.18746 52.58151,-36.02461 12.89862,-18.58609 18.24709,-41.48842 15.39771,-63.89122 -2.99897,-23.58426 -13.9425,-45.92462 -30.61935,-62.87136 -16.41088,-16.67616 -38.47854,-27.72974 -61.75905,-30.34065 -11.2963,-1.26718 -22.97642,-0.30127 -33.8208,3.16759 -11.10615,3.55247 -21.19348,9.55745 -30.04714,17.09596 -17.5073,14.90663 -30.02139,35.65631 -37.6675,57.17012 -7.71384,21.70535 -10.47044,45.55878 -6.09388,68.27802 4.21005,21.85529 15.81326,41.66341 33.67934,55.0679 16.68921,12.52185 37.87987,18.78965 58.64471,18.74556 21.82319,-0.0466 42.74397,-7.33637 59.9627,-20.70312 17.51365,-13.595 30.39499,-32.65311 37.66609,-53.51392 7.57131,-21.7237 8.4134,-45.19931 3.18453,-67.55412 -5.38762,-23.03534 -16.98943,-44.44613 -32.51341,-62.21731 -16.2052,-18.55082 -37.45796,-34.10479 -61.41651,-40.71796 -12.13237,-3.34857 -24.90505,-4.13209 -37.2759,-1.66299 -11.02501,2.20133 -21.52438,7.03791 -30.70613,13.47752 -18.70534,13.1191 -32.49224,32.18921 -41.15188,53.17278 -8.27934,20.06036 -11.65507,42.19152 -10.34556,63.82527 1.32221,21.83623 7.28945,43.40718 17.93769,62.55314 10.4962,18.87255 25.58521,34.8809 43.86404,46.38534 18.1423,11.41801 38.93607,18.28411 60.21104,20.56799 20.92537,2.24615 42.62086,-0.23178 62.25822,-7.9202 21.21713,-8.30686 40.00607,-22.43244 53.20065,-41.08591 13.19955,-18.66124 19.42749,-41.46021 15.70286,-64.14488 -3.24908,-19.78836 -14.17568,-38.38682 -31.15346,-49.3716 -1.8108,-1.17122 -4.40902,-0.36866 -5.46205,1.43263 -1.13278,1.9364 -0.38312,4.28731 1.43228,5.4617 16.52092,10.68917 26.34615,30.0348 28.06593,49.25554 1.8542,20.72393 -5.48676,41.12542 -18.53388,57.4107 -12.99881,16.2239 -30.85219,28.49104 -50.21898,35.11868 -18.70887,6.40257 -38.92937,8.09273 -58.21398,5.51569 -19.86809,-2.65466 -38.76286,-9.56276 -55.4369,-20.53732 -16.65782,-10.96293 -30.24611,-26.13449 -39.74536,-43.80724 -9.51547,-17.70309 -14.90204,-37.84388 -15.97907,-57.80193 -1.10666,-20.50451 2.01966,-40.72291 9.74972,-59.83994 7.6454,-18.90783 20.57012,-37.02826 37.44031,-49.00824 8.58132,-6.09353 17.94862,-10.55687 28.23245,-12.75891 10.91318,-2.3368 22.53932,-1.62843 33.46344,1.31374 22.41302,6.03673 42.09733,20.48157 57.39235,37.63081 14.63569,16.40945 25.54183,36.25461 30.94919,57.59873 5.24828,20.71759 4.85071,42.23349 -1.61607,62.54186 -6.21276,19.51143 -17.77224,37.38174 -33.5848,50.59045 -15.23611,12.72716 -34.28575,20.00497 -53.8861,20.7398 -19.26201,0.72249 -38.46159,-4.24427 -54.5539,-15.07419 -16.6056,-11.17529 -27.88743,-28.77961 -32.59525,-48.41346 -4.95794,-20.67913 -2.97357,-42.75913 3.35174,-63.05126 6.3373,-20.33094 17.33409,-39.88683 32.72896,-54.77405 7.38611,-7.14199 16.02704,-13.24681 25.47902,-17.19933 9.94551,-4.1589 20.41277,-5.85329 31.1097,-5.45006 21.06119,0.79445 41.97491,9.92716 57.75078,24.01958 16.35514,14.61029 27.73045,34.55634 32.00541,56.0631 4.09259,20.58846 0.78634,42.04864 -9.86965,60.04771 -10.00972,16.90758 -26.01984,30.56079 -44.87476,36.1883 -10.47291,3.12561 -21.83412,3.87985 -32.4485,0.9846 -5.201,-1.41852 -10.0845,-3.73133 -14.40038,-6.97759 -3.44522,-2.59151 -6.82731,-6.30273 -9.2329,-9.91623 -5.34776,-8.0331 -8.32732,-17.75672 -9.40364,-27.10603 -1.20615,-10.47962 -0.46391,-21.04285 1.62665,-31.35983 4.60269,-22.71289 15.35465,-44.20941 31.10936,-61.2447 7.43973,-8.04439 16.27716,-15.45237 26.64565,-19.36009 9.60367,-3.6195 19.17559,-3.88938 28.835,-0.68333 8.59544,2.85291 16.86772,8.68186 22.12622,16.01999 5.64056,7.87047 7.97913,16.6176 7.19139,26.14014 -0.69957,8.45678 -4.49475,17.6731 -10.07288,24.25135 -3.12349,3.68335 -6.32,6.45513 -10.35967,8.80604 -3.9758,2.31352 -7.9636,3.67594 -12.69859,4.44606 -1.47495,0.23988 -4.23438,0.40075 -6.3373,0.36371 -2.36185,-0.042 -4.19275,-0.21978 -6.12563,-0.56621 -4.62808,-0.82867 -8.85402,-2.26272 -12.70988,-4.28448 -4.23369,-2.22039 -7.44079,-4.56565 -10.71033,-7.96221 -2.87937,-2.99085 -5.57213,-6.97899 -7.07001,-10.56815 -6.71549,-16.09302 -0.37854,-36.5947 13.60874,-46.42874 3.89749,-2.74002 7.43056,-4.33599 11.97505,-5.36081 2.34385,-0.52846 3.64631,-0.68827 6.17643,-0.76553 1.07456,-0.0328 2.15088,-0.0226 3.22475,0.0307 0.57362,0.0282 1.14687,0.0684 1.71872,0.1203 0.28611,0.0261 0.57186,0.0561 0.85761,0.0871 0.14287,0.0162 0.28575,0.0328 0.42862,0.0497 -0.27693,-0.0402 -0.27445,-0.0395 0.008,0.002 2.28212,0.3302 4.53849,0.85831 6.73806,1.54799 2.35797,0.73942 3.74474,1.2961 5.86811,2.36537 2.06128,1.03858 4.04212,2.23591 5.91855,3.58035 0.84525,0.60571 1.15393,0.84596 2.07751,1.63477 0.87171,0.74471 1.71379,1.52505 2.5213,2.33962 1.69263,1.70674 2.80211,3.02824 4.00544,4.80342 1.27952,1.88736 2.42041,3.90243 3.30059,6.00816 -0.19086,-0.45649 0.073,0.20673 0.0878,0.24518 0.10266,0.26952 0.20497,0.5394 0.30268,0.81104 0.21449,0.59795 0.4117,1.20191 0.59514,1.80975 0.45968,1.52506 0.82973,3.07764 1.1116,4.64503 0.53128,2.95169 0.65193,5.98064 0.55916,8.97396 -0.39477,12.74657 -5.23346,25.05604 -10.12085,36.66702 -9.67351,22.98029 -21.92126,44.91037 -36.28919,65.28187 -6.83189,9.68587 -13.98693,19.48357 -22.43278,27.84052 -7.35507,7.27851 -16.54881,13.65885 -27.11839,13.41579 -11.18129,-0.25681 -20.93771,-7.65738 -28.52314,-15.26151 -7.83646,-7.85712 -14.38719,-16.88117 -19.57232,-26.68663 -10.20939,-19.30577 -14.86076,-41.80134 -11.91542,-63.47813 2.72838,-20.07693 12.17224,-38.96889 26.17822,-53.47547 14.53904,-15.05866 33.90371,-25.2088 55.03615,-26.71022 11.42259,-0.81139 23.1394,0.72743 33.70721,5.26733 10.0584,4.32117 18.66865,11.2388 25.55769,19.69841 12.98823,15.94979 18.87855,36.63633 17.84703,56.74536 -0.97472,18.99179 -8.20207,38.41962 -20.13444,53.32871 -12.33099,15.40757 -28.89179,25.80852 -48.17991,29.66826 -18.32999,3.66748 -38.5946,1.15288 -55.55544,-6.88375 -18.49403,-8.763 -32.69086,-23.72043 -40.67951,-42.79512 -8.60566,-20.5486 -10.02983,-44.10498 -5.73829,-65.61772 4.10246,-20.56589 13.25245,-40.25619 27.0182,-56.08144 13.63627,-15.67745 31.35206,-27.10885 51.62584,-31.65016 19.28389,-4.31976 40.58426,-2.51707 58.46198,6.10341 19.63561,9.46784 33.95416,26.85485 40.71303,47.63205 7.49546,23.04062 5.16995,47.86595 -3.85586,70.12834 -8.38412,20.67948 -22.83672,39.93444 -41.92129,51.81635 -18.99426,11.82547 -43.90496,15.99212 -64.82927,6.63117 -19.70298,-8.8138 -32.31656,-28.08217 -37.56695,-48.48931 -5.81624,-22.606 -3.18346,-47.77211 9.10097,-67.83846 10.9347,-17.8622 29.39167,-31.17073 50.21649,-34.35809 18.3889,-2.81446 38.46971,3.68724 53.07295,15.40686 7.6955,6.17538 13.95412,13.40733 18.64925,21.97912 4.60445,8.40493 7.35823,18.18781 8.01934,27.63167 1.38289,19.75944 -4.90466,39.75594 -17.00883,55.45103 -12.83546,16.64299 -33.58303,29.24245 -55.3593,27.97422 -21.31307,-1.24178 -37.6047,-18.31905 -45.28784,-37.12634 -8.09872,-19.82505 -8.4963,-43.04171 0.0303,-62.7828 8.24794,-19.09621 24.62882,-33.23838 44.58758,-38.65739 9.47913,-2.57352 19.67477,-3.10374 29.18001,-1.02447 9.76701,2.13677 18.76601,6.86506 26.1994,13.41509 15.79456,13.91814 24.41292,34.26954 24.70785,55.29826 0.33125,23.61812 -8.82933,46.87853 -23.04379,65.50625 -13.03019,17.07539 -31.46919,30.88347 -52.8641,34.96087 -20.59588,3.92465 -43.18353,-1.7085 -57.57651,-17.68298 -14.46001,-16.04928 -19.298,-39.06767 -21.23228,-59.87733 -2.11243,-22.72629 -0.5976,-47.05949 11.13508,-67.20593 11.16577,-19.17242 30.76468,-31.78457 51.29247,-39.07049 11.84698,-4.20476 24.39141,-7.06896 37.03039,-6.3373 11.36684,0.65828 21.98016,4.88421 30.93119,11.87308 8.70692,6.79839 15.77552,15.54445 21.94843,24.63765 6.85023,10.0905 13.0048,20.72465 18.19275,31.76412 10.04711,21.37833 16.06162,45.07865 13.40343,68.78496 -2.35691,21.01497 -11.88931,41.79252 -28.78948,55.15081 -16.18791,12.79525 -37.49076,17.31398 -57.83792,16.32796 -20.79978,-1.00823 -40.98961,-7.9629 -58.75514,-18.84574 -17.50695,-10.72412 -32.76176,-25.37216 -44.2408,-42.36264 -11.77607,-17.43004 -19.58516,-37.01732 -22.61517,-57.88589 -3.10515,-21.38892 -0.86395,-43.63368 5.78167,-64.23978 6.15845,-19.09728 16.29657,-36.92455 29.86511,-51.73028 1.45627,-1.58891 1.57127,-4.07423 0,-5.6455 -1.47673,-1.47673 -4.18359,-1.59561 -5.64585,0"
           style="fill:#4e6200;fill-opacity:1;fill-rule:nonzero;stroke:none;stroke-width:0.35277775"
           id="path452" />
        <path
           transform="translate(132.53498,117.75682)"
           d="m 786.08806,-264.31862 c 17.31927,-15.8369 30.60841,-35.8246 38.8807,-57.76808 8.27863,-21.96042 11.50584,-45.79373 9.01278,-69.14409 -2.33647,-21.88457 -10.02632,-43.21811 -21.73147,-61.82467 -11.85758,-18.84857 -27.60064,-35.23227 -46.34796,-47.3202 -18.92053,-12.19975 -40.80757,-20.03213 -63.39557,-21.03579 -22.55344,-1.00189 -45.67449,5.01122 -62.81455,20.2251 -17.61172,15.63229 -27.3491,38.614 -29.72047,61.7601 -2.64583,25.82406 4.04142,51.79979 14.29068,75.33712 5.00344,11.49033 10.77101,22.75911 17.74472,33.18757 6.46147,9.66329 14.41767,18.68911 24.31521,24.94174 22.88504,14.45683 51.90806,10.65389 76.22928,2.07998 11.15482,-3.93241 21.83588,-9.46608 31.1425,-16.80245 9.62909,-7.59072 17.31151,-17.14923 22.86494,-28.061 11.29207,-22.18867 13.11522,-48.37149 11.42647,-72.82534 -1.59349,-23.07025 -8.0772,-47.19568 -26.07909,-62.95567 -17.60114,-15.40863 -43.55959,-19.70334 -65.8375,-13.87193 -23.04768,6.0325 -42.66424,21.37975 -56.79687,40.25159 -15.3931,20.55602 -24.69127,46.19345 -22.78768,72.04924 1.62313,22.05249 12.64003,43.75538 30.34841,57.19162 18.08939,13.72588 41.85179,16.3061 63.16521,9.38953 10.3378,-3.35491 20.05542,-8.92633 28.00244,-16.36465 8.58379,-8.03381 15.12466,-18.10491 19.3548,-29.05407 8.44656,-21.86199 7.89235,-47.28563 -1.73566,-68.67527 -4.65348,-10.33814 -11.55312,-19.8441 -20.57506,-26.78994 -9.46396,-7.28698 -21.23828,-11.08851 -33.16782,-10.92729 -23.82166,0.32173 -45.89497,13.28596 -60.36979,31.77188 -13.42778,17.14852 -20.51614,39.15799 -18.89054,60.9212 1.60655,21.51451 12.95576,41.13424 29.59911,54.60118 16.60454,13.43625 38.52121,20.34152 59.77536,16.83914 22.80673,-3.75885 43.3959,-18.40406 55.44609,-37.98358 13.34311,-21.68031 17.1302,-48.93239 11.22821,-73.6159 -5.49699,-22.98984 -19.62538,-44.07396 -41.86767,-53.57003 -22.91644,-9.78394 -49.79846,-6.27133 -71.00816,6.0579 -21.49616,12.49609 -38.13598,32.62277 -48.34255,55.13671 -10.54453,23.25969 -13.65391,50.08633 -6.17079,74.71622 3.57258,11.75879 9.23607,22.84765 17.17746,32.2714 7.15327,8.48784 16.01046,15.27634 25.83321,20.38914 19.40171,10.09861 42.51571,12.97516 63.93496,8.91188 22.01123,-4.17547 41.96998,-16.15476 57.15989,-32.47002 15.40897,-16.55127 26.40965,-37.1729 31.52598,-59.21163 5.50509,-23.71443 4.81118,-49.14053 -4.51873,-71.83051 -8.41622,-20.46887 -24.03793,-36.588 -43.84323,-46.29221 -18.69298,-9.15881 -40.61601,-12.24738 -61.07181,-8.24829 -21.02345,4.11021 -39.53264,16.03833 -52.94207,32.61324 -13.18684,16.29975 -21.31025,36.99758 -22.44231,57.95365 -1.22097,22.60141 5.91255,45.88192 20.77613,63.12852 7.91528,9.18422 17.97933,16.30539 29.3169,20.62198 11.93235,4.54307 24.88247,5.99334 37.56306,4.86057 22.23382,-1.98579 43.21141,-12.84252 58.77419,-28.6699 15.82102,-16.09054 26.25443,-36.77249 29.27985,-59.17459 3.16197,-23.41422 -1.63336,-47.82433 -12.49291,-68.72924 -5.51498,-10.61614 -12.57581,-20.834 -21.36247,-29.00821 -9.25265,-8.60813 -20.89256,-14.587 -33.83668,-12.82381 -11.80711,1.60866 -22.05813,9.10447 -30.50822,17.06773 -9.46785,8.92245 -18.11584,18.8722 -26.28688,28.98069 -16.53151,20.45089 -31.01728,42.85793 -42.38907,66.58859 -5.9249,12.3645 -10.59215,25.8766 -9.32533,39.77675 0.99378,10.89907 6.34754,20.53872 14.40674,27.80771 7.39211,6.66679 17.08997,10.95445 26.9935,11.95422 10.26724,1.03647 20.39373,-1.81292 28.71787,-7.87012 16.43556,-11.95916 24.00335,-35.07916 16.72414,-54.19689 -7.40305,-19.44194 -28.84205,-31.35842 -49.16487,-29.85629 -21.37022,1.57939 -37.9984,19.5573 -42.27019,39.81979 -2.17029,10.29335 -0.73554,21.20336 4.1402,30.53821 5.02003,9.61143 13.081,17.26988 22.63987,22.28673 9.59132,5.03309 20.64737,6.91868 31.34324,5.09835 12.20752,-2.07716 23.32884,-8.39576 32.83197,-16.13394 19.21723,-15.64887 33.74601,-37.38033 41.62883,-60.81395 7.04321,-20.93806 9.64424,-45.1792 0.39935,-65.89855 -4.62314,-10.36108 -12.39908,-18.82105 -22.45925,-24.08343 -10.95234,-5.72841 -23.77828,-7.23195 -35.95299,-5.8928 -21.80801,2.39889 -41.64965,14.57325 -55.55262,31.24976 -14.48681,17.37677 -21.83341,39.71856 -20.97016,62.28539 0.90875,23.75677 9.84038,46.97449 24.95832,65.32563 14.87699,18.05764 35.88385,31.01375 58.84368,35.66654 11.14107,2.25813 22.8607,2.32551 33.96897,-0.17392 11.37602,-2.55976 21.95301,-7.65175 31.43674,-14.38028 18.7533,-13.30536 33.04786,-32.87112 42.56088,-53.62751 9.59695,-20.94054 14.44553,-44.45848 12.08864,-67.47512 -2.26732,-22.14139 -12.07878,-42.8946 -28.69389,-57.82239 -15.52047,-13.94389 -36.07613,-22.0553 -56.76407,-23.84178 -21.7424,-1.87747 -43.22444,3.53943 -61.55443,15.33631 -18.6436,11.99832 -33.15511,29.84676 -42.23632,49.98544 -9.45691,20.97194 -12.36521,44.28173 -9.12742,67.0105 3.33622,23.42056 13.00551,45.77045 26.90248,64.84091 14.50693,19.90725 34.30588,37.27414 57.58815,45.9733 11.78983,4.40513 24.44362,6.31189 36.98417,4.94243 11.17634,-1.22064 22.06059,-5.11248 31.77433,-10.71813 19.78942,-11.41904 35.20335,-29.1994 45.67945,-49.33807 10.01499,-19.2525 15.3289,-40.99984 15.93107,-62.66462 0.60819,-21.86799 -3.43427,-43.88098 -12.35357,-63.89089 -8.79158,-19.72417 -22.41056,-37.00075 -39.60424,-50.07152 -17.06526,-12.9727 -37.17254,-21.64503 -58.16353,-25.79547 -20.64597,-4.08198 -42.4755,-3.5267 -62.71401,2.40101 -21.86693,6.40434 -41.8278,18.81823 -56.61554,36.23628 -14.79303,17.4251 -23.0064,39.58625 -21.29613,62.51081 1.49225,19.99793 10.73643,39.48713 26.68023,51.92572 1.70039,1.32645 4.35927,0.75601 5.56683,-0.94509 1.29928,-1.8295 0.75953,-4.23721 -0.94474,-5.56718 -15.51481,-12.10381 -23.59625,-32.24002 -23.61494,-51.53802 -0.0201,-20.80649 9.09037,-40.48197 23.52251,-55.55263 14.37817,-15.01528 33.24331,-25.66105 53.11916,-30.55549 19.20029,-4.72828 39.49135,-4.62986 58.47362,-0.363 19.55659,4.39595 37.76909,12.94305 53.4109,25.34425 15.62594,12.38885 27.82429,28.69917 35.72864,47.14064 7.91776,18.47285 11.50797,39.01018 10.82181,58.98516 -0.70554,20.52249 -5.60175,40.38635 -14.98669,58.74737 -9.28266,18.16065 -23.75431,35.07105 -41.61473,45.51751 -9.08508,5.31318 -18.80942,8.93339 -29.24741,10.22032 -11.0765,1.36597 -22.59506,-0.36441 -33.2172,-4.25839 -21.79354,-7.98864 -40.12812,-24.1127 -53.85188,-42.54322 -13.13215,-17.63607 -22.24652,-38.36494 -25.75136,-60.1031 -3.40184,-21.09929 -1.10878,-42.49667 7.12294,-62.15593 7.90821,-18.88737 20.99803,-35.66937 37.91373,-47.43274 16.29868,-11.3344 35.91559,-16.90511 55.50428,-15.90957 19.25073,0.97895 37.93808,7.61894 53.01297,19.82505 15.55609,12.59558 25.24197,31.12594 28.20035,51.09846 3.11576,21.03543 -0.80713,42.85474 -8.89635,62.51011 -8.10505,19.69311 -20.78283,38.20372 -37.43007,51.67559 -7.98723,6.46324 -17.13264,11.78243 -26.89613,14.88652 -10.27359,3.26602 -20.84917,4.03119 -31.46883,2.68605 -20.90913,-2.6476 -40.93633,-13.58794 -55.40869,-29.01633 -15.00364,-15.99529 -24.57626,-36.86633 -26.93881,-58.66623 -2.26201,-20.86928 2.92347,-41.95411 15.12464,-58.94389 11.46104,-15.95967 28.61239,-28.14814 47.88994,-32.09149 10.70751,-2.1904 22.09128,-1.94028 32.40898,1.87925 5.05565,1.87183 9.7162,4.60586 13.7294,8.22007 3.20358,2.88502 6.24487,6.88023 8.32238,10.69129 4.61892,8.47336 6.72994,18.42135 6.97795,27.82993 0.27763,10.54454 -1.39276,21.00123 -4.38502,31.09385 -6.58672,22.219 -19.19183,42.68399 -36.38692,58.26407 -8.11952,7.35753 -17.57573,13.95765 -28.24832,16.93615 -9.88554,2.75872 -19.44406,2.18334 -28.78314,-1.86161 -8.31039,-3.59939 -16.03657,-10.13495 -20.62798,-17.9077 -4.92442,-8.3372 -6.48299,-17.25613 -4.8588,-26.67247 1.44215,-8.36224 6.03496,-17.20779 12.17154,-23.26922 3.4357,-3.39372 6.86399,-5.87269 11.09556,-7.85848 4.16419,-1.95368 8.25641,-2.95945 13.04079,-3.30941 1.49048,-0.10865 4.25343,-0.0257 6.34506,0.19685 2.34879,0.24977 4.15677,0.58842 6.05119,1.10384 4.53743,1.23367 8.62048,3.03389 12.28338,5.38833 4.02131,2.58445 7.00898,5.20312 9.96667,8.87483 2.60421,3.23321 4.93501,7.44291 6.11046,11.15025 5.27086,16.62218 -2.84832,36.48604 -17.64806,45.04831 -4.12397,2.38619 -7.78404,3.6643 -12.40119,4.28484 -2.38161,0.31997 -3.69253,0.36406 -6.21983,0.21801 -1.0735,-0.0624 -2.14418,-0.16757 -3.20957,-0.31503 -0.56903,-0.0783 -1.13595,-0.16898 -1.70145,-0.27128 -0.28257,-0.0512 -0.5648,-0.10619 -0.84666,-0.16193 -0.14076,-0.0293 -0.28152,-0.0586 -0.42228,-0.0875 0.27234,0.0639 0.26988,0.0632 -0.008,-0.003 -2.24402,-0.52987 -4.445,-1.25518 -6.57542,-2.13607 -2.28318,-0.94438 -3.61598,-1.62101 -5.63633,-2.87337 -1.96215,-1.21603 -3.82976,-2.58374 -5.58024,-4.08799 -0.78846,-0.67804 -1.07492,-0.94439 -1.92546,-1.81187 -0.80257,-0.81844 -1.57234,-1.67005 -2.3047,-2.55234 -1.536,-1.84962 -2.52448,-3.26355 -3.56694,-5.13821 -1.10807,-1.99249 -2.06692,-4.10034 -2.75801,-6.27557 0.14993,0.47167 -0.0543,-0.21237 -0.0656,-0.25188 -0.0787,-0.27763 -0.15699,-0.55527 -0.23002,-0.83432 -0.16121,-0.61454 -0.30444,-1.23366 -0.43356,-1.85561 -0.3235,-1.55928 -0.55492,-3.13866 -0.69779,-4.72475 -0.26882,-2.98697 -0.12206,-6.01451 0.23424,-8.98843 1.51659,-12.66154 7.42174,-24.49688 13.31383,-35.63196 11.66107,-22.03804 25.79441,-42.80324 41.9026,-61.82856 7.65845,-9.04628 15.64957,-18.17475 24.79921,-25.75489 7.96819,-6.60189 17.68863,-12.14719 28.19541,-10.9735 11.11532,1.24178 20.18136,9.47349 27.06687,17.7172 7.11341,8.51677 12.84288,18.08339 17.14394,28.30759 8.46738,20.13092 11.1178,42.9486 6.27275,64.28142 -4.48698,19.75873 -15.55997,37.74405 -30.7901,50.95981 -15.80973,13.71847 -35.99391,22.12199 -57.17644,21.75474 -11.44976,-0.19861 -22.98524,-2.76471 -33.11173,-8.21831 -9.63824,-5.19077 -17.60502,-12.8404 -23.72183,-21.87504 -11.5316,-17.03246 -15.57549,-38.15786 -12.77515,-58.09721 2.64513,-18.83199 11.557,-37.54721 24.75724,-51.34647 13.64121,-14.26033 31.05398,-23.16092 50.60738,-25.3051 18.58186,-2.03764 38.54591,2.25319 54.73241,11.75385 17.64947,10.35897 30.47259,26.50985 36.74851,46.21425 6.76134,21.22735 6.10306,44.81796 -0.0681,65.86821 -5.8995,20.12456 -16.74953,38.93114 -31.85653,53.48146 -14.96554,14.4145 -33.61973,24.23971 -54.21524,26.97619 -19.58938,2.60317 -40.64775,-1.07031 -57.69609,-11.23312 -18.7247,-11.16138 -31.45468,-29.74324 -36.35582,-51.0355 -5.43525,-23.61141 -0.93028,-48.13511 10.02277,-69.51556 10.17446,-19.85963 26.26818,-37.76593 46.32571,-47.91888 19.963,-10.10497 45.14391,-12.05971 65.16158,-0.89076 18.84892,10.51666 29.71518,30.82114 33.1463,51.61246 3.80084,23.03074 -1.04035,47.8663 -15.04563,66.77166 -12.46646,16.82855 -32.02481,28.45823 -53.05001,29.79773 -18.56527,1.18286 -37.99451,-7.06368 -51.50802,-20.02544 -7.12082,-6.82977 -12.71764,-14.58489 -16.63912,-23.53697 -3.84527,-8.77853 -5.72628,-18.76566 -5.55236,-28.2314 0.36441,-19.80424 8.39046,-39.16892 21.83094,-53.73582 14.25258,-15.44674 36.02991,-26.16836 57.60966,-22.9849 21.12046,3.11539 35.84329,21.56214 41.83874,40.97339 6.31966,20.46182 4.66902,43.62345 -5.56436,62.53586 -9.89965,18.29506 -27.46304,30.93826 -47.82185,34.57646 -9.66929,1.7279 -19.87161,1.35749 -29.15672,-1.55187 -9.54088,-2.98909 -18.08798,-8.49242 -24.91493,-15.67251 -14.50623,-15.25587 -21.29685,-36.28777 -19.73721,-57.26077 1.75224,-23.55568 12.92754,-45.91757 28.72881,-63.21991 14.4847,-15.86053 34.0688,-27.98938 55.73995,-30.16461 20.8615,-2.09374 42.86496,5.50827 55.79356,22.68925 12.98892,17.26142 15.77904,40.61672 15.87147,61.51564 0.10089,22.82437 -3.55283,46.92968 -17.01588,65.9631 -12.81219,18.11372 -33.44686,28.94894 -54.53698,34.39689 -12.17154,3.14395 -24.91986,4.89126 -37.44453,3.048 -11.2649,-1.65735 -21.46441,-6.80227 -29.76457,-14.55279 -8.07401,-7.53991 -14.34358,-16.87476 -19.69099,-26.47667 -5.93407,-10.65495 -11.12731,-21.79038 -15.32219,-33.24472 -8.12307,-22.18054 -12.02515,-46.31831 -7.28734,-69.69795 4.19982,-20.72605 15.5268,-40.58215 33.53893,-52.39844 17.2526,-11.31887 38.87082,-13.94212 59.05182,-11.16612 20.63009,2.83775 40.12813,11.54535 56.86531,23.95149 16.49342,12.22587 30.3978,28.16154 40.33414,46.09783 10.19388,18.40019 16.24579,38.59988 17.4244,59.65438 1.20755,21.57906 -2.98591,43.53948 -11.42188,63.48024 -7.8179,18.47956 -19.48816,35.34376 -34.3087,48.89572 -1.59067,1.45449 -1.92441,3.92006 -0.49777,5.62398 1.34055,1.60054 4.0266,1.95792 5.62363,0.49742"
           style="fill:#a8d000;fill-opacity:1;fill-rule:nonzero;stroke:none;stroke-width:0.35277775"
           id="path456" />
        <path
           transform="translate(132.53498,117.75682)"
           d="m 855.4293,-447.30578 c -15.6785,-17.4625 -35.54483,-30.93261 -57.41283,-39.40385 -21.88387,-8.47796 -45.68684,-11.92107 -69.05907,-9.64036 -21.90502,2.13748 -43.30735,9.63329 -62.01938,21.16877 -18.95581,11.68611 -35.48168,27.27995 -47.7393,45.9165 -12.37086,18.8087 -20.40184,40.62412 -21.61081,63.20188 -1.20686,22.54357 4.59634,45.7179 19.65395,62.99554 15.47142,17.75319 38.36353,27.6987 61.4874,30.28033 25.799,2.88007 51.83433,-3.57082 75.46376,-13.60594 11.53547,-4.89902 22.85611,-10.56393 33.34736,-17.44239 9.72185,-6.37363 18.8193,-14.24728 25.16154,-24.08802 14.66425,-22.7524 11.12485,-51.80894 2.77247,-76.20704 -3.83082,-11.19011 -9.26711,-21.92126 -16.51881,-31.29386 -7.50324,-9.69787 -16.99155,-17.46639 -27.85287,-23.11894 -22.08461,-11.49315 -48.24978,-13.55372 -72.71808,-12.08723 -23.08331,1.38395 -47.26693,7.64787 -63.18991,25.50654 -15.56773,17.46003 -20.0981,43.37827 -14.46953,65.70839 5.8233,23.102 20.99169,42.85685 39.73442,57.16022 20.41525,15.57937 45.9673,25.10931 71.83894,23.44103 22.06661,-1.42276 43.86865,-12.24209 57.46505,-29.82772 13.88957,-17.96414 16.68567,-41.70221 9.96315,-63.07736 -3.26109,-10.36743 -8.74395,-20.13549 -16.10959,-28.1499 -7.95587,-8.65647 -17.967,-15.28798 -28.87735,-19.61798 -21.78437,-8.64446 -47.21225,-8.32132 -68.68829,1.11196 -10.37978,4.5593 -19.94817,11.37285 -26.97551,20.33058 -7.3727,9.39801 -11.28077,21.13703 -11.22821,33.06762 0.10548,23.82344 12.86863,46.01351 31.22189,60.65556 17.0261,13.583 38.96994,20.87103 60.74726,19.44334 21.52863,-1.41146 41.24996,-12.58182 54.86826,-29.10205 13.58615,-16.48178 20.6904,-38.33495 17.38136,-59.62014 -3.55142,-22.8399 -18.00932,-43.56065 -37.47876,-55.78828 -21.55825,-13.53961 -48.77507,-17.57433 -73.51078,-11.89673 -23.0385,5.28779 -44.24997,19.22428 -53.94819,41.37943 -9.99172,22.82683 -6.72324,49.73954 5.41302,71.06037 12.30031,21.6087 32.27494,38.43056 54.69501,48.84103 23.16303,10.75549 49.96039,14.10864 74.65731,6.84953 11.7909,-3.46569 22.93055,-9.02864 32.42592,-16.88359 8.55276,-7.07602 15.42134,-15.87147 20.62303,-25.6473 10.2743,-19.30895 13.36076,-42.39578 9.49221,-63.85135 -3.97546,-22.04827 -15.77271,-42.11497 -31.94932,-57.45199 -16.41088,-15.55926 -36.9316,-26.74655 -58.92306,-32.06291 -23.66364,-5.72028 -49.09503,-5.25708 -71.86859,3.8661 -20.54437,8.2303 -36.80531,23.70454 -46.68873,43.42094 -9.32815,18.60903 -12.61569,40.50312 -8.80251,60.99457 3.91936,21.06012 15.6785,39.6762 32.13099,53.23593 16.17945,13.33464 36.80249,21.64538 57.7476,22.96759 22.58906,1.42628 45.93378,-5.49522 63.31445,-20.20147 9.25582,-7.83166 16.46837,-17.8308 20.88761,-29.1285 4.65102,-11.89073 6.21913,-24.82709 5.20135,-37.5172 -1.78364,-22.25146 -12.44951,-43.32641 -28.13474,-59.03208 -15.94625,-15.96707 -36.5326,-26.58779 -58.9061,-29.81642 -23.3846,-3.37432 -47.83774,1.19945 -68.84001,11.8685 -10.66588,5.41796 -20.94724,12.38567 -29.20118,21.09787 -8.69173,9.17399 -14.77609,20.75921 -13.13074,33.71851 1.50142,11.82159 8.90411,22.13998 16.79011,30.66203 8.83637,9.54863 18.7071,18.28658 28.7408,26.54933 20.29989,16.71639 42.57464,31.40535 66.20086,42.99163 12.30984,6.03744 25.77888,10.82745 39.69068,9.68622 10.90718,-0.89465 20.59515,-6.16021 27.93683,-14.15345 6.73381,-7.33142 11.10933,-16.98977 12.19904,-26.88378 1.12995,-10.25737 -1.62737,-20.40925 -7.60871,-28.78808 -11.80959,-16.5435 -34.86009,-24.32085 -54.04273,-17.21554 -19.50861,7.22594 -31.61947,28.55594 -30.30184,48.89181 1.38535,21.38363 19.21157,38.17409 39.43386,42.63002 10.27394,2.26378 21.1963,0.92816 30.57525,-3.86292 9.65659,-4.93218 17.38771,-12.9233 22.49099,-22.43666 5.12022,-9.54511 7.10601,-20.58352 5.38339,-31.29527 -1.96673,-12.22588 -8.18374,-23.40434 -15.83549,-32.97731 -15.47319,-19.35867 -37.07272,-34.08433 -60.43332,-42.17952 -20.87314,-7.23301 -45.08993,-10.05382 -65.89217,-0.99766 -10.40271,4.52896 -18.93288,12.22764 -24.28628,22.23982 -5.82789,10.89942 -7.44749,23.71125 -6.21912,35.89795 2.20098,21.82884 14.19437,41.77983 30.74388,55.83379 17.24448,14.64416 39.5185,22.19325 62.09242,21.53497 23.7638,-0.69286 47.06195,-9.41317 65.54927,-24.36389 18.19241,-14.71189 31.33868,-35.60057 36.19994,-58.51737 2.35868,-11.11991 2.53296,-22.83847 0.13442,-33.96896 -2.45604,-11.39896 -7.45208,-22.02181 -14.09418,-31.56621 -13.13462,-18.87326 -32.56985,-33.34492 -53.2391,-43.04593 -20.85235,-9.78712 -44.32513,-14.84877 -67.36222,-12.70106 -22.16114,2.06587 -43.0029,11.68857 -58.08062,28.16719 -14.0843,15.39344 -22.38234,35.87466 -24.35649,56.54569 -2.07468,21.72405 3.14714,43.25442 14.77681,61.69094 11.82864,18.7519 29.54443,33.42463 49.59985,42.68858 20.88513,9.64706 44.16741,12.76702 66.92476,9.73561 23.44984,-3.12315 45.88687,-12.58923 65.08257,-26.31229 20.03811,-14.32524 37.58423,-33.96614 46.49434,-57.16834 4.51203,-11.7489 6.53381,-24.3854 5.27826,-36.93759 -1.11901,-11.18729 -4.91208,-22.10647 -10.42882,-31.8703 -11.23915,-19.89243 -28.87873,-35.46757 -48.92146,-46.12568 -19.16113,-10.18964 -40.85872,-15.70073 -62.51752,-16.49977 -21.86129,-0.8068 -43.91024,3.03565 -64.00058,11.77255 -19.80318,8.61201 -37.20253,22.07365 -50.42887,39.14809 -13.12757,16.94674 -21.98194,36.97428 -26.32252,57.92682 -4.26967,20.60786 -3.9123,42.44163 1.83092,62.7334 6.20571,21.92408 18.43828,41.99678 35.72086,56.94186 17.29,14.95108 39.376,23.36553 62.31466,21.8634 20.01098,-1.31057 39.58309,-10.37766 52.16597,-26.2075 1.34195,-1.6884 0.79516,-4.35222 -0.89466,-5.57566 -1.81715,-1.31515 -4.23015,-0.79798 -5.5753,0.89465 -12.24421,15.40404 -32.45344,23.30238 -51.75038,23.14575 -20.80612,-0.16863 -40.39728,-9.45798 -55.33707,-24.02629 -14.88369,-14.51362 -25.35802,-33.47472 -30.07183,-53.39432 -4.5533,-19.24226 -4.27038,-39.53157 0.16863,-58.47467 4.57341,-19.51603 13.28561,-37.64986 25.82827,-53.17808 12.53031,-15.51341 28.95035,-27.56287 47.46307,-35.29929 18.5441,-7.74983 39.11283,-11.15342 59.08109,-10.28523 20.51545,0.89147 40.33344,5.96794 58.6091,15.5194 18.07528,9.44703 34.85375,24.07142 45.13721,42.0264 5.23064,9.13271 8.76265,18.88984 9.95468,29.33912 1.26471,11.08815 -0.57007,22.59048 -4.55999,33.17699 -8.18656,21.72016 -24.47644,39.90762 -43.03078,53.46346 -17.7546,12.97093 -38.56568,21.89692 -60.33453,25.20421 -21.12927,3.20992 -42.50444,0.72284 -62.08888,-7.68703 -18.8147,-8.07967 -35.4771,-21.32153 -47.08631,-38.34342 -11.18588,-16.40064 -16.57774,-36.06763 -15.4044,-55.64645 1.15324,-19.24086 7.9629,-37.86717 20.30519,-52.83059 12.73633,-15.44072 31.35418,-24.95832 51.3528,-27.73502 21.06259,-2.92453 42.84555,1.19662 62.4265,9.46396 19.61902,8.28357 38.01356,21.12856 51.33374,37.89785 6.39022,8.04545 11.62651,17.23849 14.64135,27.02984 3.17288,10.30287 3.84175,20.88515 2.40064,31.49211 -2.83773,20.88409 -13.95976,40.8111 -29.51903,55.14269 -16.13077,14.85795 -37.08822,24.24042 -58.9086,26.40507 -20.88796,2.07221 -41.92517,-3.30412 -58.80382,-15.65946 -15.85453,-11.60533 -27.88672,-28.86674 -31.6551,-48.17956 -2.09303,-10.72691 -1.73954,-22.10751 2.17382,-32.39064 1.91735,-5.03837 4.69371,-9.67351 8.3439,-13.65391 2.91394,-3.17676 6.93667,-6.18243 10.76678,-8.22501 8.51499,-4.54167 18.48167,-6.56238 27.89202,-6.72501 10.54664,-0.18168 20.9878,1.58362 31.05292,4.66725 22.15796,6.78851 42.50795,19.57882 57.93102,36.91467 7.28345,8.1862 13.7975,17.70167 16.679,28.40106 2.66876,9.91025 2.00696,19.46276 -2.12303,28.76481 -3.67488,8.27758 -10.28029,15.94414 -18.09466,20.46464 -8.38095,4.84857 -17.31399,6.32601 -26.71517,4.61645 -8.34884,-1.51836 -17.1524,-6.19125 -23.1574,-12.38215 -3.36266,-3.46675 -5.81025,-6.91762 -7.75758,-11.16683 -1.91593,-4.18147 -2.88431,-8.28252 -3.19087,-13.07042 -0.0956,-1.49119 0.013,-4.25308 0.25436,-6.34259 0.27128,-2.34632 0.62617,-4.15148 1.15851,-6.04132 1.27495,-4.52578 3.11256,-8.59225 5.49982,-12.23362 2.62115,-3.99768 5.26697,-6.96172 8.96548,-9.88555 3.25651,-2.57493 7.48738,-4.86762 11.20494,-6.00921 16.66944,-5.11985 36.45853,3.17959 44.88639,18.05658 2.34843,4.14549 3.59338,7.81685 4.17159,12.43965 0.29809,2.38442 0.33092,3.69535 0.16156,6.22159 -0.072,1.0728 -0.18696,2.14277 -0.34358,3.2064 -0.084,0.56832 -0.17993,1.13453 -0.28716,1.69897 -0.0536,0.28222 -0.11149,0.56374 -0.16969,0.8449 l -0.0917,0.42193 c 0.067,-0.27199 0.066,-0.26953 -0.002,0.007 -0.55034,2.23943 -1.29505,4.43371 -2.19569,6.55566 -0.96485,2.27471 -1.65347,3.60116 -2.92453,5.61058 -1.23366,1.95051 -2.61796,3.80577 -4.13844,5.54214 -0.68509,0.78246 -0.95391,1.0668 -1.82915,1.90923 -0.82585,0.79516 -1.68451,1.55716 -2.57316,2.28142 -1.86337,1.51906 -3.28648,2.49484 -5.17031,3.52002 -2.00272,1.09008 -4.11903,2.02988 -6.30061,2.70086 0.47307,-0.1457 -0.21273,0.0529 -0.25224,0.0635 -0.27834,0.0762 -0.55668,0.15205 -0.83679,0.2226 -0.61559,0.15558 -1.23578,0.29316 -1.85914,0.41628 -1.5621,0.30939 -3.1436,0.5267 -4.73075,0.65511 -2.98943,0.24165 -6.01556,0.0674 -8.98595,-0.31609 -12.64732,-1.63158 -24.42869,-7.64397 -35.50979,-13.6366 -21.93154,-11.86036 -42.56727,-26.18208 -61.44582,-42.46208 -8.97608,-7.74065 -18.03188,-15.81396 -25.52876,-25.03203 -6.52851,-8.02781 -11.98528,-17.79835 -10.71634,-28.29385 1.34233,-11.10368 9.65624,-20.09492 17.96204,-26.90495 8.58096,-7.0358 18.1991,-12.67812 28.46246,-16.88606 20.20676,-8.28463 43.0477,-10.72725 64.33572,-5.68889 19.71639,4.66654 37.60117,15.90216 50.67759,31.25188 13.57453,15.93356 21.79427,36.19288 21.2344,57.37154 -0.30232,11.44728 -2.97285,22.95948 -8.51817,33.03551 -5.27826,9.59098 -13.00022,17.48791 -22.08952,23.52217 -17.13656,11.37638 -38.29793,15.22871 -58.21118,12.24703 -18.8074,-2.81586 -37.44076,-11.89742 -51.11937,-25.22219 -14.13615,-13.77032 -22.87834,-31.26316 -24.84472,-50.83526 -1.86867,-18.59987 2.6035,-38.52405 12.25056,-54.62342 10.51912,-17.55492 26.78571,-30.23057 46.5462,-36.32727 21.28767,-6.56837 44.87121,-5.6956 65.86468,0.66603 20.07022,6.08225 38.77768,17.10302 53.19042,32.34125 14.27762,15.09572 23.93315,33.83845 26.48232,54.45795 2.42498,19.61268 -1.43934,40.63648 -11.75632,57.59168 -11.33159,18.62243 -30.02846,31.18344 -51.3641,35.8909 -23.6601,5.22041 -48.14182,0.49319 -69.42174,-10.65388 -19.76648,-10.35403 -37.52566,-26.61003 -47.49622,-46.75893 -9.92328,-20.05367 -11.64872,-45.25115 -0.2988,-65.16687 10.6874,-18.75261 31.08995,-29.43402 51.91123,-32.6764 23.06428,-3.59128 47.85537,1.47497 66.63268,15.65134 16.71461,12.61886 28.16613,32.28234 29.31442,53.31883 1.01387,18.5748 -7.40868,37.92855 -20.49214,51.32387 -6.89435,7.05873 -14.70025,12.585 -23.68763,16.42498 -8.81275,3.7652 -18.81682,5.55555 -28.28044,5.2952 -19.80036,-0.54398 -39.09094,-8.74572 -53.53543,-22.31743 -15.31655,-14.39263 -25.83991,-36.26662 -22.46065,-57.81639 3.30729,-21.09152 21.88704,-35.64608 41.3519,-41.4648 20.51827,-6.13374 43.66366,-4.27249 62.48258,6.13234 18.2044,10.0651 30.68745,27.74245 34.14044,48.1337 1.64004,9.68446 1.17721,19.88291 -1.81645,29.14156 -3.07553,9.51301 -8.65646,18.00966 -15.89759,24.77135 -15.38746,14.36688 -36.48003,20.96629 -57.43821,19.21616 -23.53841,-1.96568 -45.79832,-13.34382 -62.95637,-29.30172 -15.72825,-14.62793 -27.67859,-34.32175 -29.65697,-56.01159 -1.9043,-20.88021 5.89774,-42.81311 23.19514,-55.58507 17.37853,-12.83194 40.75817,-15.40969 61.65742,-15.31232 22.82403,0.10654 46.89511,3.97933 65.80541,17.61455 17.99627,12.97622 28.64415,33.70863 33.90018,54.84707 3.0332,12.19975 4.66479,24.96289 2.70829,37.47063 -1.76002,11.24938 -6.99736,21.40127 -14.82302,29.63122 -7.6126,8.00488 -17.0046,14.18978 -26.65449,19.44969 -10.70855,5.83707 -21.89056,10.92906 -33.38195,15.01952 -22.25393,7.92162 -46.42626,11.60392 -69.76179,6.65409 -20.68698,-4.3882 -40.43936,-15.89511 -52.09197,-34.01342 -11.16153,-17.3549 -13.58829,-38.99605 -10.62884,-59.15095 3.02472,-20.60362 11.90908,-40.02158 24.46691,-56.64517 12.37544,-16.38194 28.43635,-30.14098 46.46189,-39.91398 18.49259,-10.02629 38.74627,-15.89476 59.81028,-16.88182 21.58895,-1.01179 43.51092,3.38101 63.37372,11.99761 18.40793,7.98583 35.16558,19.80882 48.58243,34.75178 1.44005,1.60373 3.90245,1.96004 5.61906,0.54892 1.6129,-1.32609 1.99459,-4.00896 0.54856,-5.61904"
           style="fill:#6b8600;fill-opacity:1;fill-rule:nonzero;stroke:none;stroke-width:0.35277775"
           id="path460" />
        <path
           id="path536"
           style="fill:#f4e3d7;fill-opacity:1;fill-rule:nonzero;stroke:none;stroke-width:0.35277775"
           d="m 906.34003,-344.19096 c 0,5.34176 -1.61114,9.67175 -3.59869,9.67175 -1.9872,0 -3.59833,-4.32999 -3.59833,-9.67175 0,-5.34176 1.61113,-9.6714 3.59833,-9.6714 1.98755,0 3.59869,4.32964 3.59869,9.6714" />
        <path
           id="path540"
           style="fill:#f4e3d7;fill-opacity:1;fill-rule:nonzero;stroke:none;stroke-width:0.35277775"
           d="m 851.84758,-318.81337 c 0,5.34176 -1.61113,9.67175 -3.59833,9.67175 -1.9872,0 -3.59833,-4.32999 -3.59833,-9.67175 0,-5.34141 1.61113,-9.67141 3.59833,-9.67141 1.9872,0 3.59833,4.33 3.59833,9.67141" />
        <path
           id="path544"
           style="fill:#f4e3d7;fill-opacity:1;fill-rule:nonzero;stroke:none;stroke-width:0.35277775"
           d="m 867.0113,-378.5348 c 0,5.3414 -1.61114,9.6714 -3.59869,9.6714 -1.98719,0 -3.59833,-4.33 -3.59833,-9.6714 0,-5.34177 1.61114,-9.67176 3.59833,-9.67176 1.98755,0 3.59869,4.32999 3.59869,9.67176" />
        <path
           id="path548"
           style="fill:#f4e3d7;fill-opacity:1;fill-rule:nonzero;stroke:none;stroke-width:0.35277775"
           d="m 826.12201,-338.1393 c 0,5.33188 -1.79105,9.65446 -4.0005,9.65446 -2.20944,0 -4.0005,-4.32258 -4.0005,-9.65446 0,-5.33154 1.79106,-9.65412 4.0005,-9.65412 2.20945,0 4.0005,4.32258 4.0005,9.65412" />
        <path
           id="path552"
           style="fill:#f4e3d7;fill-opacity:1;fill-rule:nonzero;stroke:none;stroke-width:0.35277775"
           d="m 847.22306,-356.24538 c 3.7772,3.77684 5.69983,7.97807 4.29437,9.38354 -1.40547,1.40511 -5.60635,-0.51753 -9.38319,-4.29472 -3.77719,-3.77684 -5.69983,-7.97772 -4.29436,-9.38318 1.40511,-1.40512 5.60599,0.51717 9.38318,4.29436" />
        <path
           id="path556"
           style="fill:#f4e3d7;fill-opacity:1;fill-rule:nonzero;stroke:none;stroke-width:0.35277775"
           d="m 826.63583,-299.76887 c 3.7772,3.77719 5.69948,7.97806 4.29437,9.38353 -1.40547,1.40511 -5.60635,-0.51752 -9.38319,-4.29436 -3.77719,-3.7772 -5.69983,-7.97807 -4.29471,-9.38354 1.40546,-1.40511 5.60634,0.51753 9.38353,4.29437" />
        <path
           id="path560"
           style="fill:#f4e3d7;fill-opacity:1;fill-rule:nonzero;stroke:none;stroke-width:0.35277775"
           d="m 795.12872,-352.72068 c 3.77683,3.77684 5.69947,7.97807 4.29436,9.38354 -1.40547,1.40511 -5.60634,-0.51753 -9.38354,-4.29437 -3.77684,-3.77719 -5.69947,-7.97807 -4.29436,-9.38353 1.40547,-1.40512 5.60634,0.51752 9.38354,4.29436" />
        <path
           id="path564"
           style="fill:#f4e3d7;fill-opacity:1;fill-rule:nonzero;stroke:none;stroke-width:0.35277775"
           d="m 794.77957,-295.24376 c 3.77049,3.77049 5.56013,8.09307 3.99803,9.65553 -1.56245,1.56245 -5.88539,-0.22754 -9.65553,-3.99768 -3.77049,-3.77014 -5.56013,-8.09307 -3.99803,-9.65553 1.56246,-1.56245 5.88539,0.22754 9.65553,3.99768" />
        <path
           id="path568"
           style="fill:#f4e3d7;fill-opacity:1;fill-rule:nonzero;stroke:none;stroke-width:0.35277775"
           d="m 796.89726,-322.96712 c 5.34141,0 9.67175,1.61079 9.67175,3.59834 0,1.98719 -4.33034,3.59833 -9.67175,3.59833 -5.34141,0 -9.67176,-1.61114 -9.67176,-3.59833 0,-1.98755 4.33035,-3.59834 9.67176,-3.59834" />
        <path
           id="path572"
           style="fill:#f4e3d7;fill-opacity:1;fill-rule:nonzero;stroke:none;stroke-width:0.35277775"
           d="m 822.27487,-268.47502 c 5.3414,0 9.67175,1.61114 9.67175,3.59834 0,1.98755 -4.33035,3.59868 -9.67175,3.59868 -5.34141,0 -9.67176,-1.61113 -9.67176,-3.59868 0,-1.9872 4.33035,-3.59834 9.67176,-3.59834" />
        <path
           id="path576"
           style="fill:#f4e3d7;fill-opacity:1;fill-rule:nonzero;stroke:none;stroke-width:0.35277775"
           d="m 762.55329,-283.6386 c 5.34176,0 9.67175,1.61113 9.67175,3.59833 0,1.98755 -4.32999,3.59833 -9.67175,3.59833 -5.34141,0 -9.67176,-1.61078 -9.67176,-3.59833 0,-1.9872 4.33035,-3.59833 9.67176,-3.59833" />
        <path
           id="path580"
           style="fill:#f4e3d7;fill-opacity:1;fill-rule:nonzero;stroke:none;stroke-width:0.35277775"
           d="m 802.94909,-242.74942 c 5.33189,0 9.65412,1.79105 9.65412,4.00085 0,2.20945 -4.32223,4.0005 -9.65412,4.0005 -5.33188,0 -9.65447,-1.79105 -9.65447,-4.0005 0,-2.2098 4.32259,-4.00085 9.65447,-4.00085" />
        <path
           id="path584"
           style="fill:#f4e3d7;fill-opacity:1;fill-rule:nonzero;stroke:none;stroke-width:0.35277775"
           d="m 784.84288,-263.85031 c 3.77684,-3.77719 7.97807,-5.69948 9.38318,-4.29437 1.40547,1.40547 -0.51717,5.60635 -4.29436,9.38319 -3.77684,3.77719 -7.97807,5.69983 -9.38318,4.29471 -1.40547,-1.40546 0.51717,-5.60669 4.29436,-9.38353" />
        <path
           id="path588"
           style="fill:#f4e3d7;fill-opacity:1;fill-rule:nonzero;stroke:none;stroke-width:0.35277775"
           d="m 841.31936,-243.26311 c 3.77719,-3.77684 7.97807,-5.69948 9.38354,-4.29436 1.40511,1.40546 -0.51753,5.60634 -4.29472,9.38353 -3.77684,3.77684 -7.97772,5.69948 -9.38318,4.29437 -1.40512,-1.40547 0.51752,-5.6067 4.29436,-9.38354" />
        <path
           id="path592"
           style="fill:#f4e3d7;fill-opacity:1;fill-rule:nonzero;stroke:none;stroke-width:0.35277775"
           d="m 788.36755,-211.756 c 3.7772,-3.77684 7.97807,-5.69948 9.38354,-4.29436 1.40511,1.40547 -0.51753,5.60634 -4.29472,9.38353 -3.77684,3.77684 -7.97771,5.69948 -9.38318,4.29437 -1.40512,-1.40547 0.51717,-5.60634 4.29436,-9.38354" />
        <path
           id="path596"
           style="fill:#f4e3d7;fill-opacity:1;fill-rule:nonzero;stroke:none;stroke-width:0.35277775"
           d="m 845.84464,-211.40698 c 3.77013,-3.77049 8.09307,-5.56014 9.65552,-3.99768 1.5621,1.56245 -0.22754,5.88539 -3.99803,9.65517 -3.77013,3.77049 -8.09307,5.56048 -9.65552,3.99803 -1.5621,-1.56245 0.22754,-5.88504 3.99803,-9.65552" />
        <path
           id="path600"
           style="fill:#f4e3d7;fill-opacity:1;fill-rule:nonzero;stroke:none;stroke-width:0.35277775"
           d="m 818.12093,-213.52471 c 0,-5.34141 1.61114,-9.6714 3.59834,-9.6714 1.98755,0 3.59868,4.32999 3.59868,9.6714 0,5.34176 -1.61113,9.67175 -3.59868,9.67175 -1.9872,0 -3.59834,-4.32999 -3.59834,-9.67175" />
        <path
           id="path604"
           style="fill:#f4e3d7;fill-opacity:1;fill-rule:nonzero;stroke:none;stroke-width:0.35277775"
           d="m 872.61338,-238.90233 c 0,-5.3414 1.61113,-9.6714 3.59833,-9.6714 1.9872,0 3.59833,4.33 3.59833,9.6714 0,5.34176 -1.61113,9.67176 -3.59833,9.67176 -1.9872,0 -3.59833,-4.33 -3.59833,-9.67176" />
        <path
           id="path608"
           style="fill:#f4e3d7;fill-opacity:1;fill-rule:nonzero;stroke:none;stroke-width:0.35277775"
           d="m 857.44963,-179.18052 c 0,-5.34177 1.61114,-9.67176 3.59833,-9.67176 1.9872,0 3.59869,4.32999 3.59869,9.67176 0,5.34141 -1.61149,9.6714 -3.59869,9.6714 -1.98719,0 -3.59833,-4.32999 -3.59833,-9.6714" />
        <path
           id="path612"
           style="fill:#f4e3d7;fill-opacity:1;fill-rule:nonzero;stroke:none;stroke-width:0.35277775"
           d="m 898.33897,-219.57634 c 0,-5.33188 1.79106,-9.65412 4.0005,-9.65412 2.20945,0 4.0005,4.32224 4.0005,9.65412 0,5.33188 -1.79105,9.65412 -4.0005,9.65412 -2.20944,0 -4.0005,-4.32224 -4.0005,-9.65412" />
        <path
           id="path616"
           style="fill:#f4e3d7;fill-opacity:1;fill-rule:nonzero;stroke:none;stroke-width:0.35277775"
           d="m 877.23792,-201.46997 c -3.77719,-3.7772 -5.69983,-7.97808 -4.29436,-9.38354 1.40511,-1.40511 5.60634,0.51752 9.38318,4.29436 3.77719,3.77684 5.69983,7.97807 4.29437,9.38354 -1.40512,1.40511 -5.60635,-0.51753 -9.38319,-4.29436" />
        <path
           id="path620"
           style="fill:#f4e3d7;fill-opacity:1;fill-rule:nonzero;stroke:none;stroke-width:0.35277775"
           d="m 897.8251,-257.94682 c -3.77719,-3.77684 -5.69948,-7.97807 -4.29436,-9.38354 1.40546,-1.40511 5.60634,0.51753 9.38318,4.29472 3.77719,3.77684 5.69983,7.97771 4.29436,9.38318 -1.40511,1.40511 -5.60599,-0.51717 -9.38318,-4.29436" />
        <path
           id="path624"
           style="fill:#f4e3d7;fill-opacity:1;fill-rule:nonzero;stroke:none;stroke-width:0.35277775"
           d="m 929.33227,-204.99497 c -3.77684,-3.77684 -5.69948,-7.97771 -4.29437,-9.38318 1.40547,-1.40547 5.60634,0.51717 9.38318,4.29436 3.7772,3.77684 5.69983,7.97807 4.29472,9.38354 -1.40547,1.40511 -5.60634,-0.51752 -9.38353,-4.29472" />
        <path
           id="path628"
           style="fill:#f4e3d7;fill-opacity:1;fill-rule:nonzero;stroke:none;stroke-width:0.35277775"
           d="m 929.68123,-262.47194 c -3.77014,-3.77049 -5.56014,-8.09307 -3.99768,-9.65553 1.5621,-1.56245 5.88504,0.22754 9.65553,3.99803 3.77013,3.76979 5.55977,8.09273 3.99767,9.65518 -1.56245,1.56245 -5.88504,-0.22719 -9.65552,-3.99768" />
        <path
           id="path632"
           style="fill:#f4e3d7;fill-opacity:1;fill-rule:nonzero;stroke:none;stroke-width:0.35277775"
           d="m 927.56371,-234.74821 c -5.34176,0 -9.67175,-1.61114 -9.67175,-3.59833 0,-1.98755 4.32999,-3.59833 9.67175,-3.59833 5.34141,0 9.67176,1.61078 9.67176,3.59833 0,1.98719 -4.33035,3.59833 -9.67176,3.59833" />
        <path
           id="path636"
           style="fill:#f4e3d7;fill-opacity:1;fill-rule:nonzero;stroke:none;stroke-width:0.35277775"
           d="m 902.18607,-289.24068 c -5.34176,0 -9.67176,-1.61078 -9.67176,-3.59833 0,-1.98755 4.33,-3.59834 9.67176,-3.59834 5.34141,0 9.67175,1.61079 9.67175,3.59834 0,1.98755 -4.33034,3.59833 -9.67175,3.59833" />
        <path
           id="path640"
           style="fill:#f4e3d7;fill-opacity:1;fill-rule:nonzero;stroke:none;stroke-width:0.35277775"
           d="m 961.9075,-274.07709 c -5.34141,0 -9.67175,-1.61079 -9.67175,-3.59834 0,-1.98719 4.33034,-3.59833 9.67175,-3.59833 5.34176,0 9.67176,1.61114 9.67176,3.59833 0,1.98755 -4.33,3.59834 -9.67176,3.59834" />
        <path
           id="path644"
           style="fill:#f4e3d7;fill-opacity:1;fill-rule:nonzero;stroke:none;stroke-width:0.35277775"
           d="m 921.51187,-314.96622 c -5.33188,0 -9.65412,-1.79106 -9.65412,-4.0005 0,-2.20945 4.32224,-4.0005 9.65412,-4.0005 5.33188,0 9.65447,1.79105 9.65447,4.0005 0,2.20944 -4.32259,4.0005 -9.65447,4.0005" />
        <path
           id="path648"
           style="fill:#f4e3d7;fill-opacity:1;fill-rule:nonzero;stroke:none;stroke-width:0.35277775"
           d="m 939.6181,-293.86538 c -3.77719,3.77719 -7.97807,5.69982 -9.38318,4.29471 -1.40547,-1.40546 0.51717,-5.6067 4.29436,-9.38354 3.77684,-3.77683 7.97807,-5.69947 9.38318,-4.29436 1.40547,1.40547 -0.51717,5.60635 -4.29436,9.38319" />
        <path
           id="path652"
           style="fill:#f4e3d7;fill-opacity:1;fill-rule:nonzero;stroke:none;stroke-width:0.35277775"
           d="m 883.14144,-314.45256 c -3.77684,3.77719 -7.97807,5.69983 -9.38318,4.29472 -1.40547,-1.40547 0.51752,-5.6067 4.29436,-9.38354 3.77684,-3.77719 7.97807,-5.69948 9.38318,-4.29436 1.40547,1.40546 -0.51717,5.60634 -4.29436,9.38318" />
        <path
           id="path656"
           style="fill:#f4e3d7;fill-opacity:1;fill-rule:nonzero;stroke:none;stroke-width:0.35277775"
           d="m 936.09343,-345.95967 c -3.77719,3.77719 -7.97807,5.69947 -9.38354,4.29436 -1.40511,-1.40547 0.51753,-5.60634 4.29472,-9.38318 3.77684,-3.7772 7.97771,-5.69983 9.38318,-4.29437 1.40512,1.40547 -0.51717,5.60635 -4.29436,9.38319" />
        <path
           id="path660"
           style="fill:#f4e3d7;fill-opacity:1;fill-rule:nonzero;stroke:none;stroke-width:0.35277775"
           d="m 878.6163,-346.30869 c -3.77049,3.77049 -8.09308,5.56013 -9.65553,3.99803 -1.5621,-1.56245 0.22754,-5.88539 3.99768,-9.65552 3.77048,-3.77049 8.09342,-5.56013 9.65552,-3.99768 1.56246,1.56245 -0.22754,5.88468 -3.99767,9.65517" />
      </g>
    </g>
  </g>
</svg>
